<svg width="500" height="498" viewBox="0 0 500 498" fill="none" xmlns="http://www.w3.org/2000/svg">
<path fill-rule="evenodd" clip-rule="evenodd" d="M209.986 0.591797C208.787 140.881 128.443 262.289 11.4252 322.344C4.00171 298.686 0 273.514 0 247.407C0 122.955 90.936 19.7431 209.986 0.591797Z" fill="white"/>
<path fill-rule="evenodd" clip-rule="evenodd" d="M488.575 322.344C371.557 262.289 291.213 140.881 290.014 0.591797C409.064 19.7431 500 122.955 500 247.407C500 273.514 495.998 298.686 488.575 322.344Z" fill="white"/>
<path fill-rule="evenodd" clip-rule="evenodd" d="M346.144 448.53L346.122 448.561C335.873 462.603 322.757 474.119 307.782 482.437C298.37 487.665 288.223 491.629 277.594 494.163C250.041 500.731 221.049 497.256 195.829 484.362C170.609 471.468 150.815 450.001 140.006 423.82C134.014 409.305 131 393.87 131 378.407C131 378.226 131 378.046 131.001 377.866C131.29 312.972 183.521 260.346 248.262 259.419C249.429 259.402 250.597 259.402 251.765 259.42C282.875 259.872 311.095 272.262 332.048 292.215C333.274 293.381 334.476 294.575 335.654 295.797C356.301 317.199 369 346.32 369 378.407H198.791C198.791 385.061 200.087 391.703 202.666 397.949C207.318 409.216 215.836 418.454 226.689 424.003C237.294 429.425 249.45 430.977 261.064 428.407C261.334 428.347 261.605 428.285 261.875 428.22C273.731 425.394 284.191 418.431 291.374 408.583L346.144 448.53Z" fill="white"/>
</svg>
