<svg width="3195" height="600" viewBox="0 0 3195 600" fill="none" xmlns="http://www.w3.org/2000/svg">
<path fill-rule="evenodd" clip-rule="evenodd" d="M209.986 51.5918C208.787 191.881 128.443 313.289 11.4252 373.344C4.00171 349.686 0 324.514 0 298.407C0 173.955 90.936 70.7431 209.986 51.5918Z" fill="white"/>
<path fill-rule="evenodd" clip-rule="evenodd" d="M488.575 373.344C371.557 313.289 291.213 191.881 290.014 51.5918C409.064 70.7431 500 173.955 500 298.407C500 324.514 495.998 349.686 488.575 373.344Z" fill="white"/>
<path fill-rule="evenodd" clip-rule="evenodd" d="M346.144 499.53L346.122 499.561C335.873 513.603 322.757 525.119 307.782 533.437C298.37 538.665 288.223 542.629 277.594 545.163C250.041 551.731 221.049 548.256 195.829 535.362C170.609 522.468 150.815 501.001 140.006 474.82C134.014 460.305 131 444.87 131 429.407C131 429.226 131 429.046 131.001 428.866C131.29 363.972 183.521 311.346 248.262 310.419C249.429 310.402 250.597 310.402 251.765 310.42C282.875 310.872 311.095 323.262 332.048 343.215C333.274 344.381 334.476 345.575 335.654 346.797C356.301 368.199 369 397.32 369 429.407H198.791C198.791 436.061 200.087 442.703 202.666 448.949C207.318 460.216 215.836 469.454 226.689 475.003C237.294 480.425 249.45 481.977 261.064 479.407C261.334 479.347 261.605 479.285 261.875 479.22C273.731 476.394 284.191 469.431 291.374 459.583L346.144 499.53Z" fill="white"/>
<path d="M1024.4 244.8C1024.4 258.933 1021.07 272.267 1014.4 284.8C1007.73 297.333 997.067 307.6 982.4 315.6C967.733 323.333 948.933 327.2 926 327.2H875.6V440H830V162H926C947.333 162 965.333 165.733 980 173.2C994.933 180.4 1006 190.267 1013.2 202.8C1020.67 215.333 1024.4 229.333 1024.4 244.8ZM926 290C943.333 290 956.267 286.133 964.8 278.4C973.333 270.4 977.6 259.2 977.6 244.8C977.6 214.4 960.4 199.2 926 199.2H875.6V290H926ZM1052.69 328.8C1052.69 306.667 1057.22 287.067 1066.29 270C1075.62 252.933 1088.16 239.733 1103.89 230.4C1119.89 220.8 1137.49 216 1156.69 216C1174.02 216 1189.09 219.467 1201.89 226.4C1214.96 233.067 1225.36 241.467 1233.09 251.6V219.6H1279.09V440H1233.09V407.2C1225.36 417.6 1214.82 426.267 1201.49 433.2C1188.16 440.133 1172.96 443.6 1155.89 443.6C1136.96 443.6 1119.62 438.8 1103.89 429.2C1088.16 419.333 1075.62 405.733 1066.29 388.4C1057.22 370.8 1052.69 350.933 1052.69 328.8ZM1233.09 329.6C1233.09 314.4 1229.89 301.2 1223.49 290C1217.36 278.8 1209.22 270.267 1199.09 264.4C1188.96 258.533 1178.02 255.6 1166.29 255.6C1154.56 255.6 1143.62 258.533 1133.49 264.4C1123.36 270 1115.09 278.4 1108.69 289.6C1102.56 300.533 1099.49 313.6 1099.49 328.8C1099.49 344 1102.56 357.333 1108.69 368.8C1115.09 380.267 1123.36 389.067 1133.49 395.2C1143.89 401.067 1154.82 404 1166.29 404C1178.02 404 1188.96 401.067 1199.09 395.2C1209.22 389.333 1217.36 380.8 1223.49 369.6C1229.89 358.133 1233.09 344.8 1233.09 329.6ZM1384.58 251.6C1391.25 240.4 1400.05 231.733 1410.98 225.6C1422.18 219.2 1435.38 216 1450.58 216V263.2H1438.98C1421.12 263.2 1407.52 267.733 1398.18 276.8C1389.12 285.867 1384.58 301.6 1384.58 324V440H1338.98V219.6H1384.58V251.6ZM1515.7 190.4C1507.43 190.4 1500.5 187.6 1494.9 182C1489.3 176.4 1486.5 169.467 1486.5 161.2C1486.5 152.933 1489.3 146 1494.9 140.4C1500.5 134.8 1507.43 132 1515.7 132C1523.7 132 1530.5 134.8 1536.1 140.4C1541.7 146 1544.5 152.933 1544.5 161.2C1544.5 169.467 1541.7 176.4 1536.1 182C1530.5 187.6 1523.7 190.4 1515.7 190.4ZM1538.1 219.6V440H1492.5V219.6H1538.1ZM1677.97 443.6C1660.64 443.6 1645.04 440.533 1631.17 434.4C1617.57 428 1606.77 419.467 1598.77 408.8C1590.77 397.867 1586.5 385.733 1585.97 372.4H1633.17C1633.97 381.733 1638.37 389.6 1646.37 396C1654.64 402.133 1664.9 405.2 1677.17 405.2C1689.97 405.2 1699.84 402.8 1706.77 398C1713.97 392.933 1717.57 386.533 1717.57 378.8C1717.57 370.533 1713.57 364.4 1705.57 360.4C1697.84 356.4 1685.44 352 1668.37 347.2C1651.84 342.667 1638.37 338.267 1627.97 334C1617.57 329.733 1608.5 323.2 1600.77 314.4C1593.3 305.6 1589.57 294 1589.57 279.6C1589.57 267.867 1593.04 257.2 1599.97 247.6C1606.9 237.733 1616.77 230 1629.57 224.4C1642.64 218.8 1657.57 216 1674.37 216C1699.44 216 1719.57 222.4 1734.77 235.2C1750.24 247.733 1758.5 264.933 1759.57 286.8H1713.97C1713.17 276.933 1709.17 269.067 1701.97 263.2C1694.77 257.333 1685.04 254.4 1672.77 254.4C1660.77 254.4 1651.57 256.667 1645.17 261.2C1638.77 265.733 1635.57 271.733 1635.57 279.2C1635.57 285.067 1637.7 290 1641.97 294C1646.24 298 1651.44 301.2 1657.57 303.6C1663.7 305.733 1672.77 308.533 1684.77 312C1700.77 316.267 1713.84 320.667 1723.97 325.2C1734.37 329.467 1743.3 335.867 1750.77 344.4C1758.24 352.933 1762.1 364.267 1762.37 378.4C1762.37 390.933 1758.9 402.133 1751.97 412C1745.04 421.867 1735.17 429.6 1722.37 435.2C1709.84 440.8 1695.04 443.6 1677.97 443.6ZM1961.15 198.8V280.4H2057.15V317.6H1961.15V402.8H2069.15V440H1915.55V161.6H2069.15V198.8H1961.15ZM2210.51 399.2L2272.91 219.6H2321.31L2237.31 440H2182.91L2099.31 219.6H2148.11L2210.51 399.2ZM2557.78 324.4C2557.78 332.667 2557.25 340.133 2556.18 346.8H2387.78C2389.11 364.4 2395.65 378.533 2407.38 389.2C2419.11 399.867 2433.51 405.2 2450.58 405.2C2475.11 405.2 2492.45 394.933 2502.58 374.4H2551.78C2545.11 394.667 2532.98 411.333 2515.38 424.4C2498.05 437.2 2476.45 443.6 2450.58 443.6C2429.51 443.6 2410.58 438.933 2393.78 429.6C2377.25 420 2364.18 406.667 2354.58 389.6C2345.25 372.267 2340.58 352.267 2340.58 329.6C2340.58 306.933 2345.11 287.067 2354.18 270C2363.51 252.667 2376.45 239.333 2392.98 230C2409.78 220.667 2428.98 216 2450.58 216C2471.38 216 2489.91 220.533 2506.18 229.6C2522.45 238.667 2535.11 251.467 2544.18 268C2553.25 284.267 2557.78 303.067 2557.78 324.4ZM2510.18 310C2509.91 293.2 2503.91 279.733 2492.18 269.6C2480.45 259.467 2465.91 254.4 2448.58 254.4C2432.85 254.4 2419.38 259.467 2408.18 269.6C2396.98 279.467 2390.31 292.933 2388.18 310H2510.18ZM2713.86 216C2731.19 216 2746.66 219.6 2760.26 226.8C2774.12 234 2784.92 244.667 2792.66 258.8C2800.39 272.933 2804.26 290 2804.26 310V440H2759.06V316.8C2759.06 297.067 2754.12 282 2744.26 271.6C2734.39 260.933 2720.92 255.6 2703.86 255.6C2686.79 255.6 2673.19 260.933 2663.06 271.6C2653.19 282 2648.26 297.067 2648.26 316.8V440H2602.66V219.6H2648.26V244.8C2655.72 235.733 2665.19 228.667 2676.66 223.6C2688.39 218.533 2700.79 216 2713.86 216ZM2915.62 256.8V378.8C2915.62 387.067 2917.49 393.067 2921.22 396.8C2925.22 400.267 2931.89 402 2941.22 402H2969.22V440H2933.22C2912.69 440 2896.96 435.2 2886.02 425.6C2875.09 416 2869.62 400.4 2869.62 378.8V256.8H2843.62V219.6H2869.62V164.8H2915.62V219.6H2969.22V256.8H2915.62ZM3091.25 443.6C3073.92 443.6 3058.32 440.533 3044.45 434.4C3030.85 428 3020.05 419.467 3012.05 408.8C3004.05 397.867 2999.78 385.733 2999.25 372.4H3046.45C3047.25 381.733 3051.65 389.6 3059.65 396C3067.92 402.133 3078.18 405.2 3090.45 405.2C3103.25 405.2 3113.12 402.8 3120.05 398C3127.25 392.933 3130.85 386.533 3130.85 378.8C3130.85 370.533 3126.85 364.4 3118.85 360.4C3111.12 356.4 3098.72 352 3081.65 347.2C3065.12 342.667 3051.65 338.267 3041.25 334C3030.85 329.733 3021.78 323.2 3014.05 314.4C3006.58 305.6 3002.85 294 3002.85 279.6C3002.85 267.867 3006.32 257.2 3013.25 247.6C3020.18 237.733 3030.05 230 3042.85 224.4C3055.92 218.8 3070.85 216 3087.65 216C3112.72 216 3132.85 222.4 3148.05 235.2C3163.52 247.733 3171.78 264.933 3172.85 286.8H3127.25C3126.45 276.933 3122.45 269.067 3115.25 263.2C3108.05 257.333 3098.32 254.4 3086.05 254.4C3074.05 254.4 3064.85 256.667 3058.45 261.2C3052.05 265.733 3048.85 271.733 3048.85 279.2C3048.85 285.067 3050.98 290 3055.25 294C3059.52 298 3064.72 301.2 3070.85 303.6C3076.98 305.733 3086.05 308.533 3098.05 312C3114.05 316.267 3127.12 320.667 3137.25 325.2C3147.65 329.467 3156.58 335.867 3164.05 344.4C3171.52 352.933 3175.38 364.267 3175.65 378.4C3175.65 390.933 3172.18 402.133 3165.25 412C3158.32 421.867 3148.45 429.6 3135.65 435.2C3123.12 440.8 3108.32 443.6 3091.25 443.6Z" fill="white"/>
</svg>
